<?xml version="1.0" encoding="iso-8859-1"?>
<!-- Generator: Adobe Illustrator 19.0.0, SVG Export Plug-In . SVG Version: 6.00 Build 0)  -->
<svg version="1.1" id="Capa_1" xmlns="http://www.w3.org/2000/svg" xmlns:xlink="http://www.w3.org/1999/xlink" x="0px" y="0px"
	 viewBox="0 0 512 512" style="enable-background:new 0 0 512 512;" xml:space="preserve">
<g>
	<g>
		<path d="M437.02,74.98C388.668,26.629,324.38,0,256,0S123.332,26.629,74.98,74.98C26.628,123.331,0,187.62,0,256
			s26.629,132.668,74.98,181.02C123.331,485.372,187.62,512,256,512s132.668-26.629,181.02-74.98
			C485.372,388.669,512,324.38,512,256S485.371,123.332,437.02,74.98z M256,497C123.112,497,15,388.888,15,256S123.112,15,256,15
			s241,108.112,241,241S388.888,497,256,497z"/>
	</g>
</g>
<g>
	<g>
		<path d="M271,90h-15c-4.143,0-7.5,3.357-7.5,7.5v30c0,4.143,3.357,7.5,7.5,7.5h15c33.636,0,61,27.364,61,61s-27.364,61-61,61
			h-23.5c-4.143,0-7.5,3.357-7.5,7.5s3.357,7.5,7.5,7.5H271c41.906,0,76-34.094,76-76s-34.094-76-76-76h-7.5v-15h7.5
			c74.99,0,136,61.01,136,136s-61.01,136-136,136h-83.5c-4.143,0-7.5,3.357-7.5,7.5v11.894L108.106,324.5L180,252.606V264.5
			c0,4.143,3.357,7.5,7.5,7.5h30c4.143,0,7.5-3.357,7.5-7.5s-3.357-7.5-7.5-7.5H195v-22.5c0-3.033-1.827-5.769-4.63-6.929
			c-2.803-1.163-6.028-0.52-8.174,1.625l-90,90c-2.929,2.93-2.929,7.678,0,10.607l90,90c1.436,1.435,3.354,2.196,5.306,2.196
			c0.966,0,1.94-0.187,2.868-0.571c2.803-1.16,4.63-3.896,4.63-6.929V392h76c83.262,0,151-67.738,151-151S354.262,90,271,90z"/>
	</g>
</g>
<g>
</g>
<g>
</g>
<g>
</g>
<g>
</g>
<g>
</g>
<g>
</g>
<g>
</g>
<g>
</g>
<g>
</g>
<g>
</g>
<g>
</g>
<g>
</g>
<g>
</g>
<g>
</g>
<g>
</g>
</svg>
